<svg width="466" height="498" xmlns="http://www.w3.org/2000/svg" xmlns:xlink="http://www.w3.org/1999/xlink" xml:space="preserve" overflow="hidden"><g transform="translate(-363 -1307)"><rect x="374.5" y="1368.5" width="365" height="364" stroke="#BFBFBF" stroke-width="22.9167" stroke-miterlimit="8" fill="none"/><path d="M408 1403 701.649 1403 829 1550 701.649 1697 408 1697Z" fill="#7F7F7F" fill-rule="evenodd"/><path d="M554.817 1551.77 650.714 1455.87 746.611 1551.77 650.714 1647.66Z" fill="#A6A6A6" fill-rule="evenodd"/><path d="M363.671 1552.84 459.568 1456.94 555.465 1552.84 459.568 1648.73Z" fill="#A6A6A6" fill-rule="evenodd"/><path d="M510.966 1550.24 554.836 1506.37 598.706 1550.24 554.836 1594.11Z" fill="#FFFFFF" fill-rule="evenodd"/><path d="M0 0 172.342 172.342" stroke="#FFFFFF" stroke-width="68.75" stroke-miterlimit="8" fill="none" fill-rule="evenodd" transform="matrix(-1 0 0 1 657.842 1331.5)"/><path d="M0 0 172.342 172.342" stroke="#FFFFFF" stroke-width="68.75" stroke-miterlimit="8" fill="none" fill-rule="evenodd" transform="matrix(-1 0 0 1 625.842 1597.5)"/></g></svg>